<?xml version="1.0" encoding="UTF-8"?>
<svg width="48px" height="48px" viewBox="0 0 48 48" version="1.1" xmlns="http://www.w3.org/2000/svg" xmlns:xlink="http://www.w3.org/1999/xlink">
    <!-- Generator: Sketch 54.1 (76490) - https://sketchapp.com -->
    <title>Group 2</title>
    <desc>Created with Sketch.</desc>
    <defs>
        <circle id="path-1" cx="20" cy="20" r="20"></circle>
        <filter x="-17.5%" y="-12.5%" width="135.0%" height="135.0%" filterUnits="objectBoundingBox" id="filter-2">
            <feOffset dx="0" dy="2" in="SourceAlpha" result="shadowOffsetOuter1"></feOffset>
            <feGaussianBlur stdDeviation="2" in="shadowOffsetOuter1" result="shadowBlurOuter1"></feGaussianBlur>
            <feColorMatrix values="0 0 0 0 0   0 0 0 0 0   0 0 0 0 0  0 0 0 0.18091674 0" type="matrix" in="shadowBlurOuter1"></feColorMatrix>
        </filter>
    </defs>
    <g id="Web" stroke="none" stroke-width="1" fill="none" fill-rule="evenodd">
        <g id="See-More-Tags-Copy-3" transform="translate(-642.000000, -88.000000)">
            <g id="Group-10" transform="translate(646.000000, 90.000000)">
                <g id="Group-2">
                    <g id="Oval-3">
                        <use fill="black" fill-opacity="1" filter="url(#filter-2)" xlink:href="#path-1"></use>
                        <use fill="#FFFFFF" fill-rule="evenodd" xlink:href="#path-1"></use>
                    </g>
                    <path d="M26.3086898,18.3981406 C25.9878249,18.3981406 25.727165,18.6583445 25.727165,18.9798935 L25.727165,28.0259115 L22.5390406,28.0259115 L22.5390406,24.5353941 C22.5390406,22.8163611 21.1408724,21.4179649 19.4218394,21.4179649 C17.7025783,21.4179649 16.3041821,22.8163611 16.3041821,24.5353941 L16.3041821,28.0261395 L13.1165138,28.0261395 L13.1165138,18.9798935 C13.1165138,18.6583445 12.8558538,18.3981406 12.534989,18.3981406 C12.213896,18.3981406 11.9532361,18.6583445 11.9532361,18.9798935 L11.9532361,28.6074363 C11.9532361,28.9285292 12.213896,29.1891892 12.534989,29.1891892 L16.8857069,29.1891892 C17.2067999,29.1891892 17.4672318,28.9285292 17.4672318,28.6074363 L17.4672318,24.5353941 C17.4672318,23.4583189 18.3443081,22.5812426 19.4218394,22.5812426 C20.4993707,22.5812426 21.3759909,23.458547 21.3759909,24.5353941 L21.3759909,28.6074363 C21.3759909,28.9285292 21.6366509,29.1891892 21.9575157,29.1891892 L26.3086898,29.1891892 C26.6297828,29.1891892 26.8904427,28.9285292 26.8904427,28.6074363 L26.8904427,18.9798935 C26.8904427,18.6588006 26.6297828,18.3981406 26.3086898,18.3981406 Z M28.9047991,17.8845744 L19.8325556,8.81233079 C19.6140847,8.59408794 19.2282258,8.59408794 19.0104391,8.81233079 L9.93865158,17.8845744 C9.71151482,18.1117111 9.71151482,18.4797821 9.93865158,18.7069189 C10.05222,18.8204873 10.2011359,18.8772715 10.3500519,18.8772715 C10.4989679,18.8772715 10.6478838,18.8204873 10.7614522,18.7069189 L19.4218394,10.0460756 L28.0829107,18.707147 C28.3100475,18.9342837 28.6781185,18.9342837 28.9052552,18.707147 C29.132392,18.4800102 29.1319359,18.1117111 28.9047991,17.8845744 Z" id="Shape" stroke="#0082DE" stroke-width="0.7" fill="#0082DE" fill-rule="nonzero"></path>
                </g>
            </g>
        </g>
    </g>
</svg>