<?xml version="1.0" encoding="UTF-8"?>
<svg width="23px" height="17px" viewBox="0 0 23 17" version="1.1" xmlns="http://www.w3.org/2000/svg" xmlns:xlink="http://www.w3.org/1999/xlink">
    <!-- Generator: Sketch 54.1 (76490) - https://sketchapp.com -->
    <title>Combined Shape</title>
    <desc>Created with Sketch.</desc>
    <g id="Web" stroke="none" stroke-width="1" fill="none" fill-rule="evenodd">
        <g id="See-More-Tags-Copy-3" transform="translate(-1139.000000, -21.000000)" fill="#4A4A4A">
            <path d="M1140.5,21 L1160.5,21 C1161.32843,21 1162,21.6715729 1162,22.5 C1162,23.3284271 1161.32843,24 1160.5,24 L1140.5,24 C1139.67157,24 1139,23.3284271 1139,22.5 C1139,21.6715729 1139.67157,21 1140.5,21 Z M1140.5,28 L1160.5,28 C1161.32843,28 1162,28.6715729 1162,29.5 C1162,30.3284271 1161.32843,31 1160.5,31 L1140.5,31 C1139.67157,31 1139,30.3284271 1139,29.5 C1139,28.6715729 1139.67157,28 1140.5,28 Z M1140.5,35 L1160.5,35 C1161.32843,35 1162,35.6715729 1162,36.5 C1162,37.3284271 1161.32843,38 1160.5,38 L1140.5,38 C1139.67157,38 1139,37.3284271 1139,36.5 C1139,35.6715729 1139.67157,35 1140.5,35 Z" id="Combined-Shape"></path>
        </g>
    </g>
</svg>