<?xml version="1.0" encoding="UTF-8"?>
<svg width="185px" height="186px" viewBox="0 0 185 186" version="1.1" xmlns="http://www.w3.org/2000/svg" xmlns:xlink="http://www.w3.org/1999/xlink">
    <!-- Generator: Sketch 54.1 (76490) - https://sketchapp.com -->
    <title>Group</title>
    <desc>Created with Sketch.</desc>
    <g id="Page-1" stroke="none" stroke-width="1" fill="none" fill-rule="evenodd">
        <g id="rantton-logo2" fill-rule="nonzero">
            <g id="Group" transform="translate(0.325805, 0.000000)">
                <path d="M22.2103291,53.4733101 C10.5216848,49.8250155 3.62294682,42.4733018 2.16332133,31.9639983 C1.22522752,25.2349793 3.64262311,18.1872488 8.9765283,12.1197062 C15.5732521,4.68110334 25.3751297,-0.129634144 34.0104035,0.00266113655 C41.9047969,0.123605879 51.8044926,3.59174707 56.3075574,18.8703752 C65.3901069,15.8340949 76.7613505,14.4769676 91.9978305,14.4769676 C107.214671,14.4769676 118.593368,15.8305985 127.670918,18.8586422 C132.173514,3.56695299 142.089842,0.101602829 149.961204,0.00266113655 C158.572424,-0.105580457 168.368288,4.64502281 174.928932,12.0956525 C180.274864,18.1631952 182.704286,25.216939 181.766192,31.9399446 C180.309364,42.429111 173.438913,49.7867775 161.787989,53.433244 C167.417302,65.7131535 172.666143,81.672905 179.763723,103.704121 C186.697198,125.226158 185.175802,143.080007 175.181495,156.766556 C157.965069,180.387277 120.44733,185.342336 92.0038439,185.342336 C63.5603585,185.342336 26.0426196,180.387277 8.8382196,156.766556 C-1.13203384,143.080007 -2.67748326,125.226158 4.25599214,103.704121 C11.3445779,81.691718 16.5891077,65.7422945 22.2103291,53.4733101 Z" id="Combined-Shape-Copy-2" fill="#0082DE"></path>
                <path d="M69.3572972,148.828839 C67.9861781,148.828793 66.709786,148.129396 65.9718544,146.97379 C65.2339233,145.818184 65.1363904,144.366007 65.7131636,143.122101 C65.989781,142.520759 72.6646792,128.635768 92.4668774,128.545567 C112.269076,128.455365 119.064243,142.304276 119.346873,142.893591 C120.141288,144.858803 119.271985,147.103081 117.361047,148.020395 C115.450108,148.937709 113.155268,148.212325 112.11874,146.363336 C111.89023,145.900302 107.031385,136.579498 92.6653203,136.579498 L92.5209982,136.579498 C77.764061,136.645646 73.0615651,146.40543 73.0194711,146.501644 C72.358738,147.926664 70.9280295,148.835834 69.3572972,148.828839 Z" id="Combined-Shape-path" fill="#FFFFFF"></path>
            </g>
        </g>
    </g>
</svg>